<svg xmlns="http://www.w3.org/2000/svg" viewBox="0 0 22 22">
  <!-- Mini app icon for menu bar — dark bg + white elements -->

  <!-- Dark rounded rect background -->
  <rect x="1" y="1" width="20" height="20" rx="5" ry="5" fill="#1a103c"/>

  <!-- Sound wave arcs — lighter/thinner -->
  <path d="M6 5.5 Q11 3.5 16 5.5" stroke="white" stroke-width="1" fill="none" stroke-linecap="round" opacity="0.25"/>
  <path d="M5 8 Q11 5.5 17 8" stroke="white" stroke-width="1.1" fill="none" stroke-linecap="round" opacity="0.35"/>
  <path d="M4.5 10.5 Q11 7.5 17.5 10.5" stroke="white" stroke-width="1.3" fill="none" stroke-linecap="round" opacity="0.5"/>

  <!-- Brush stroke — white -->
  <path d="M3.5 13.5 C6 12.5 12 12 16 13.5 C18 14.3 19 15 19.5 15.5 Q19.8 15.8 19.5 16.2 C17.5 16.2 13 15.8 9 15 C5.5 14.3 3.5 14.5 3.5 14.5 Q2.8 14 3.5 13.5 Z" fill="white" opacity="0.85"/>

  <!-- Ink dot -->
  <circle cx="18.5" cy="18" r="1.2" fill="white" opacity="0.5"/>
</svg>
